<svg width="21" height="21" viewBox="0 0 21 21" fill="none" xmlns="http://www.w3.org/2000/svg">
<path d="M20.5756 4.26906C20.5052 4.18482 20.4172 4.11705 20.3177 4.07056C20.2183 4.02407 20.1098 3.99998 20 4H4.87625L4.30625 0.865938C4.27485 0.693126 4.1838 0.536814 4.04897 0.424254C3.91414 0.311694 3.74408 0.250025 3.56844 0.25H1.25C1.05109 0.25 0.860322 0.329018 0.71967 0.46967C0.579018 0.610322 0.5 0.801088 0.5 1C0.5 1.19891 0.579018 1.38968 0.71967 1.53033C0.860322 1.67098 1.05109 1.75 1.25 1.75H2.9375L5.33375 14.9022C5.40434 15.2922 5.57671 15.6567 5.83344 15.9588C5.47911 16.2897 5.22336 16.7123 5.09456 17.1798C4.96575 17.6472 4.96892 18.1412 5.10372 18.6069C5.23851 19.0726 5.49966 19.4919 5.85821 19.8183C6.21676 20.1447 6.6587 20.3654 7.13502 20.4559C7.61135 20.5465 8.10344 20.5033 8.55673 20.3313C9.01003 20.1592 9.40682 19.865 9.7031 19.4812C9.99938 19.0974 10.1836 18.639 10.2353 18.157C10.287 17.6749 10.2041 17.1879 9.99594 16.75H14.2541C14.0863 17.1013 13.9995 17.4857 14 17.875C14 18.3942 14.154 18.9017 14.4424 19.3334C14.7308 19.7651 15.1408 20.1015 15.6205 20.3002C16.1001 20.4989 16.6279 20.5508 17.1371 20.4496C17.6463 20.3483 18.114 20.0983 18.4812 19.7312C18.8483 19.364 19.0983 18.8963 19.1996 18.3871C19.3008 17.8779 19.2489 17.3501 19.0502 16.8705C18.8515 16.3908 18.5151 15.9808 18.0834 15.6924C17.6517 15.404 17.1442 15.25 16.625 15.25H7.54719C7.37155 15.25 7.20149 15.1883 7.06665 15.0757C6.93182 14.9632 6.84077 14.8069 6.80938 14.6341L6.51219 13H17.3872C17.9141 12.9999 18.4243 12.8149 18.8288 12.4772C19.2333 12.1396 19.5064 11.6706 19.6006 11.1522L20.7406 4.88406C20.7599 4.77573 20.7551 4.66447 20.7266 4.55818C20.6981 4.4519 20.6466 4.35319 20.5756 4.26906ZM8.75 17.875C8.75 18.0975 8.68402 18.315 8.5604 18.5C8.43679 18.685 8.26109 18.8292 8.05552 18.9144C7.84995 18.9995 7.62375 19.0218 7.40552 18.9784C7.18729 18.935 6.98684 18.8278 6.82951 18.6705C6.67217 18.5132 6.56503 18.3127 6.52162 18.0945C6.47821 17.8762 6.50049 17.6501 6.58564 17.4445C6.67078 17.2389 6.81498 17.0632 6.99998 16.9396C7.18499 16.816 7.4025 16.75 7.625 16.75C7.92337 16.75 8.20952 16.8685 8.4205 17.0795C8.63147 17.2905 8.75 17.5766 8.75 17.875ZM17.75 17.875C17.75 18.0975 17.684 18.315 17.5604 18.5C17.4368 18.685 17.2611 18.8292 17.0555 18.9144C16.85 18.9995 16.6238 19.0218 16.4055 18.9784C16.1873 18.935 15.9868 18.8278 15.8295 18.6705C15.6722 18.5132 15.565 18.3127 15.5216 18.0945C15.4782 17.8762 15.5005 17.6501 15.5856 17.4445C15.6708 17.2389 15.815 17.0632 16 16.9396C16.185 16.816 16.4025 16.75 16.625 16.75C16.9234 16.75 17.2095 16.8685 17.4205 17.0795C17.6315 17.2905 17.75 17.5766 17.75 17.875ZM18.125 10.8841C18.0935 11.0574 18.0021 11.214 17.8666 11.3267C17.7312 11.4393 17.5605 11.5006 17.3844 11.5H6.23938L5.14906 5.5H19.1009L18.125 10.8841Z" fill="#AFAFAF"/>
</svg>
