<svg width="24" height="24" viewBox="0 0 24 24" fill="none" xmlns="http://www.w3.org/2000/svg">
<path d="M20.0402 6.81969L14.2802 2.78969C12.7102 1.68969 10.3002 1.74969 8.79023 2.91969L3.78023 6.82969C2.78023 7.60969 1.99023 9.20969 1.99023 10.4697L1.99023 17.3697C1.99023 19.9197 4.06023 21.9997 6.61023 21.9997H17.3902C19.9402 21.9997 22.0102 19.9297 22.0102 17.3797V10.5997C22.0102 9.24969 21.1402 7.58969 20.0402 6.81969Z" fill="#A2AA7B"/>
<path d="M12 18.75C11.59 18.75 11.25 18.41 11.25 18V15C11.25 14.59 11.59 14.25 12 14.25C12.41 14.25 12.75 14.59 12.75 15V18C12.75 18.41 12.41 18.75 12 18.75Z" fill="white"/>
</svg>
