<svg width="27" height="27" viewBox="0 0 27 27" fill="none" xmlns="http://www.w3.org/2000/svg">
<path d="M20.2557 26.0423H6.74565C3.54898 26.0423 0.958984 23.4406 0.958984 20.244V11.599C0.958984 10.0123 1.93898 8.01729 3.19898 7.03729L9.48732 2.13729C11.3773 0.667287 14.399 0.597287 16.359 1.97395L23.569 7.02562C24.9573 7.99395 26.0423 10.0706 26.0423 11.7623V20.2556C26.0423 23.4406 23.4523 26.0423 20.2557 26.0423ZM10.5607 3.51395L4.27232 8.41395C3.44398 9.06729 2.70898 10.549 2.70898 11.599V20.244C2.70898 22.4723 4.51732 24.2923 6.74565 24.2923H20.2557C22.484 24.2923 24.2923 22.484 24.2923 20.2556V11.7623C24.2923 10.6423 23.4873 9.09062 22.5657 8.46062L15.3557 3.40895C14.0257 2.47562 11.8323 2.52229 10.5607 3.51395Z" fill="#A2AA7B"/>
<path d="M13.5 21.375C13.0217 21.375 12.625 20.9783 12.625 20.5V17C12.625 16.5217 13.0217 16.125 13.5 16.125C13.9783 16.125 14.375 16.5217 14.375 17V20.5C14.375 20.9783 13.9783 21.375 13.5 21.375Z" fill="#A2AA7B"/>
</svg>
